PathFileType	4	(x/y/z)	S01_PSF_T12.trc
DataRate	CameraRate	NumFrames	NumMarkers	Units	OrigDataRate	OrigDataStartFrame	OrigNumFrames
240	240	11	51	mm	240	280	372
Frame#	Time	Sternum			R.Acromium			L.Acromium			Top.Head			R.ASIS			L.ASIS			R.PSIS			L.PSIS			R.Great.Tro			L.Great.Tro			R.Iliac.Crest			L.Iliac.Crest			V.Sacral			R.Thigh.Upper.Post			R.Thigh.Lower.Ant			R.Thigh.Lower.Post			R.Thigh.Upper.Ant			R.Knee.Lat			R.Knee.Med			R.Shank.Upper.Post			R.Shank.Lower.Ant			R.Shank.Lower.Post			R.Shank.Upper.Ant			R.Ankle.Lat			R.Ankle.Med			R.Heel.Upper			R.Heel.Med			R.Heel.Lat			R.Toe.Lat			R.Toe.Med			R.Toe.Tip			L.Thigh.Upper.Post			L.Thigh.Lower.Ant			L.Thigh.Lower.Post			L.Thigh.Upper.Ant			L.Knee.Lat			L.Knee.Med			L.Shank.Upper.Post			L.Shank.Lower.Ant			L.Shank.Lower.Post			L.Shank.Upper.Ant			L.Ankle.Lat			L.Ankle.Med			L.Heel.Upper			L.Heel.Med			L.Heel.Lat			L.Toe.Lat			L.Toe.Med			L.Toe.Tip			Cervical.Spine			Back			
		X1	Y1	Z1	X2	Y2	Z2	X3	Y3	Z3	X4	Y4	Z4	X5	Y5	Z5	X6	Y6	Z6	X7	Y7	Z7	X8	Y8	Z8	X9	Y9	Z9	X10	Y10	Z10	X11	Y11	Z11	X12	Y12	Z12	X13	Y13	Z13	X14	Y14	Z14	X15	Y15	Z15	X16	Y16	Z16	X17	Y17	Z17	X18	Y18	Z18	X19	Y19	Z19	X20	Y20	Z20	X21	Y21	Z21	X22	Y22	Z22	X23	Y23	Z23	X24	Y24	Z24	X25	Y25	Z25	X26	Y26	Z26	X27	Y27	Z27	X28	Y28	Z28	X29	Y29	Z29	X30	Y30	Z30	X31	Y31	Z31	X32	Y32	Z32	X33	Y33	Z33	X34	Y34	Z34	X35	Y35	Z35	X36	Y36	Z36	X37	Y37	Z37	X38	Y38	Z38	X39	Y39	Z39	X40	Y40	Z40	X41	Y41	Z41	X42	Y42	Z42	X43	Y43	Z43	X44	Y44	Z44	X45	Y45	Z45	X46	Y46	Z46	X47	Y47	Z47	X48	Y48	Z48	X49	Y49	Z49	X50	Y50	Z50	X51	Y51	Z51	

280	1.1625	495.97	1291.4	302.22	385.08	1550.8	469.04	380.76	1559.6	139.7	439.55	1865.4	286.85	433.01	1049.7	458.04	446.33	1043.5	192.38	201.92	1086.1	357.38	202.74	1085.1	253.4	356.27	998.59	539.55	342.82	990.59	112.67	343.79	1150.3	516.21	342.25	1126.5	113.19	188.3	1049.3	301.96	446.69	699.53	539.67	537.82	654.24	525.69	479.21	616.91	524.61	507.91	739.37	537.96	506.74	561.31	525.36	539.07	564.08	378.55	385.11	452.57	521.76	401.97	349.95	483.95	348.21	394.32	505.46	435.83	411.74	507.35	249	220.77	454.8	297.06	209.84	370.16	186.3	230.22	381.9	190.39	198.05	351.84	173.47	197.91	414.56	313.38	88.068	498.52	366.32	80.541	386.15	420.4	66.869	451.4	310.72	705.88	146.09	395.03	634.54	148.73	320.03	617.22	166.68	377.03	725.95	125.79	369.07	530.95	161.91	390.33	538.2	302.55	302.4	395.1	147.38	355.26	301.67	176.69	296.78	317.82	153.95	361.76	378.03	165.67	263.49	108.5	197.14	288.66	117.45	293.82	191.33	78.482	243.77	201.17	53.288	277.85	199.38	51.951	215.09	408.52	39.746	178.79	435.49	46.169	300.18	498.53	54.285	248.39	302.56	1614.3	304.94	198.65	1309.5	319.43
281	1.1667	501.22	1291.6	302.35	390.07	1550.9	469.21	386.32	1559.9	139.8	444.87	1865.5	287.46	438.29	1050	457.88	451.4	1043.5	192.23	207.16	1086.3	357.61	207.82	1085.3	253.6	361.79	999.06	539.71	347.59	990.62	112.75	349.06	1150.5	516.2	347.17	1126.5	113.18	193.47	1049.5	302.19	454.06	700.48	539.74	545.42	655.8	525.31	487.07	618.08	524.48	515.01	740.71	537.76	514.98	562.52	525.1	546.73	565.62	378.39	395.43	451.09	521.82	414.4	348.91	483.88	359.77	392.05	505.5	446.94	411.41	507.26	264.28	216.22	455.01	312.48	206.56	370.3	201.09	223.95	382.25	206.05	191.86	352.25	189.24	191.29	414.97	332.31	85.406	498.74	385.28	79.274	386.24	439.81	67.122	451.4	313.25	706.39	146.17	397.04	634.42	148.72	321.91	617.64	166.64	379.73	725.98	125.8	370.15	530.91	161.77	391.61	537.92	302.48	303.08	395.2	147.34	355.72	301.64	176.6	297.29	317.95	153.88	362.42	377.97	165.57	263.57	108.61	197.21	288.75	117.54	293.85	191.42	78.618	243.86	201.25	53.4	277.91	199.42	52.102	215.15	408.54	39.731	178.78	435.52	46.138	300.16	498.55	54.221	248.37	307.9	1614.4	304.95	203.94	1309.6	319.14
282	1.1708	506.48	1291.6	302.49	395.08	1550.9	469.38	391.88	1560.1	139.91	450.19	1865.6	288.09	443.56	1050.2	457.74	456.48	1043.4	192.09	212.4	1086.4	357.83	212.89	1085.5	253.8	367.3	999.45	539.87	352.37	990.61	112.83	354.32	1150.6	516.21	352.09	1126.5	113.17	198.63	1049.6	302.42	461.34	701.34	539.77	552.93	657.25	524.92	494.82	619.17	524.31	522.03	741.94	537.54	523.11	563.66	524.8	554.29	567.07	378.22	405.74	449.54	521.88	426.84	347.84	483.83	371.34	389.73	505.55	458.03	411.03	507.17	279.71	211.65	455.25	328.02	203.25	370.47	216.07	217.61	382.63	221.92	185.62	352.7	205.23	184.65	415.43	351.36	82.845	499.01	404.31	78.091	386.4	459.25	67.496	451.47	315.81	706.88	146.25	399.07	634.29	148.72	323.82	618.05	166.6	382.45	726	125.83	371.25	530.86	161.62	392.9	537.62	302.4	303.78	395.29	147.29	356.2	301.61	176.5	297.82	318.08	153.81	363.1	377.9	165.47	263.65	108.72	197.27	288.86	117.62	293.88	191.5	78.753	243.95	201.33	53.513	277.97	199.46	52.253	215.21	408.55	39.715	178.78	435.55	46.107	300.14	498.58	54.158	248.35	313.25	1614.5	304.98	209.23	1309.7	318.88
283	1.175	511.73	1291.6	302.63	400.12	1550.9	469.56	397.46	1560.3	140.02	455.51	1865.6	288.72	448.82	1050.3	457.63	461.56	1043.2	191.97	217.64	1086.4	358.05	217.96	1085.7	253.99	372.79	999.76	540.04	357.17	990.56	112.93	359.58	1150.7	516.24	357.03	1126.4	113.17	203.79	1049.7	302.65	468.53	702.11	539.75	560.32	658.6	524.49	502.47	620.17	524.1	528.97	743.07	537.31	531.14	564.72	524.48	561.76	568.42	378.01	416.03	447.92	521.94	439.29	346.75	483.79	382.93	387.35	505.61	469.08	410.62	507.09	295.27	207.07	455.52	343.67	199.92	370.68	231.26	211.22	383.04	238	179.35	353.2	221.42	177.99	415.91	370.5	80.396	499.35	423.42	77.001	386.63	478.71	67.999	451.61	318.39	707.34	146.32	401.13	634.15	148.72	325.76	618.44	166.56	385.19	726	125.86	372.38	530.81	161.48	394.2	537.32	302.33	304.49	395.38	147.25	356.69	301.58	176.41	298.37	318.21	153.73	363.8	377.83	165.38	263.74	108.84	197.34	289.01	117.7	293.92	191.58	78.888	244.04	201.42	53.627	278.02	199.5	52.405	215.27	408.57	39.699	178.77	435.59	46.078	300.12	498.6	54.095	248.32	318.61	1614.5	305.02	214.52	1309.7	318.63
284	1.1792	516.99	1291.6	302.77	405.19	1550.8	469.75	403.04	1560.4	140.14	460.83	1865.5	289.37	454.08	1050.4	457.54	466.65	1043	191.88	222.89	1086.4	358.27	223.02	1085.7	254.18	378.27	999.98	540.21	361.98	990.46	113.03	364.85	1150.7	516.28	361.99	1126.2	113.17	208.95	1049.8	302.87	475.63	702.8	539.68	567.61	659.84	524.05	509.99	621.07	523.84	535.82	744.1	537.05	539.05	565.69	524.14	569.12	569.68	377.78	426.29	446.24	522	451.75	345.63	483.77	394.54	384.94	505.68	480.11	410.16	507.01	310.98	202.49	455.83	359.44	196.6	370.92	246.64	204.8	383.48	254.29	173.07	353.73	237.83	171.34	416.44	389.73	78.073	499.75	442.58	76.012	386.92	498.19	68.637	451.83	320.99	707.78	146.38	403.22	634.01	148.73	327.73	618.81	166.5	387.96	725.99	125.9	373.53	530.76	161.32	395.5	537.02	302.25	305.23	395.46	147.19	357.2	301.54	176.32	298.94	318.34	153.64	364.51	377.76	165.28	263.82	108.95	197.4	289.18	117.79	293.96	191.66	79.023	244.12	201.51	53.743	278.07	199.54	52.558	215.32	408.59	39.68	178.76	435.62	46.049	300.1	498.61	54.032	248.29	323.98	1614.4	305.07	219.81	1309.7	318.42
285	1.1833	522.25	1291.4	302.92	410.29	1550.7	469.94	408.63	1560.4	140.27	466.15	1865.4	290.02	459.33	1050.4	457.48	471.74	1042.7	191.81	228.13	1086.3	358.49	228.08	1085.8	254.37	383.73	1000.1	540.39	366.81	990.33	113.13	370.11	1150.6	516.34	366.98	1125.9	113.18	214.11	1049.8	303.08	482.63	703.38	539.57	574.79	660.96	523.57	517.41	621.88	523.54	542.57	745.02	536.76	546.85	566.59	523.76	576.39	570.83	377.52	436.53	444.5	522.04	464.21	344.5	483.77	406.16	382.48	505.76	491.09	409.68	506.92	326.83	197.94	456.17	375.32	193.28	371.21	262.22	198.36	383.96	270.79	166.8	354.32	254.45	164.7	417.01	409.04	75.889	500.22	461.8	75.135	387.29	517.68	69.417	452.12	323.63	708.21	146.43	405.33	633.85	148.75	329.73	619.18	166.43	390.75	725.97	125.94	374.7	530.7	161.16	396.81	536.7	302.17	305.98	395.55	147.13	357.72	301.5	176.22	299.52	318.46	153.55	365.25	377.68	165.17	263.9	109.07	197.46	289.38	117.88	293.99	191.73	79.158	244.2	201.59	53.862	278.12	199.59	52.711	215.37	408.6	39.66	178.75	435.65	46.021	300.08	498.63	53.97	248.27	329.35	1614.3	305.14	225.1	1309.6	318.22
286	1.1875	527.52	1291.2	303.07	415.41	1550.4	470.13	414.23	1560.4	140.41	471.49	1865.3	290.68	464.57	1050.2	457.45	476.85	1042.4	191.76	233.38	1086.2	358.71	233.14	1085.8	254.56	389.18	1000.2	540.56	371.65	990.17	113.24	375.38	1150.4	516.42	371.99	1125.6	113.2	219.27	1049.7	303.3	489.52	703.87	539.42	581.86	661.97	523.07	524.7	622.57	523.2	549.23	745.82	536.46	554.54	567.4	523.35	583.57	571.88	377.22	446.75	442.71	522.08	476.67	343.36	483.78	417.79	380	505.85	502.04	409.17	506.84	342.81	193.42	456.55	391.3	189.98	371.53	277.99	191.92	384.48	287.48	160.55	354.95	271.27	158.11	417.63	428.42	73.854	500.75	481.06	74.379	387.73	537.16	70.348	452.48	326.29	708.61	146.47	407.47	633.69	148.77	331.76	619.53	166.35	393.56	725.92	125.99	375.9	530.64	160.99	398.14	536.38	302.09	306.75	395.64	147.06	358.26	301.46	176.11	300.12	318.58	153.45	366	377.59	165.06	263.98	109.18	197.51	289.59	117.97	294.02	191.81	79.293	244.28	201.68	53.983	278.16	199.63	52.864	215.42	408.62	39.638	178.75	435.68	45.994	300.06	498.65	53.907	248.24	334.74	1614.1	305.23	230.4	1309.5	318.06
287	1.1917	532.79	1290.9	303.23	420.56	1550.1	470.33	419.83	1560.3	140.55	476.82	1865	291.35	469.81	1050	457.44	481.97	1042	191.73	238.62	1086	358.93	238.2	1085.7	254.76	394.62	1000.1	540.74	376.51	989.97	113.35	380.65	1150.2	516.51	377.04	1125.2	113.22	224.43	1049.6	303.51	496.32	704.25	539.22	588.81	662.85	522.53	531.87	623.16	522.81	555.8	746.51	536.14	562.12	568.12	522.91	590.66	572.82	376.89	456.95	440.87	522.1	489.13	342.22	483.81	429.43	377.49	505.93	512.95	408.63	506.76	358.93	188.94	456.96	407.39	186.71	371.9	293.96	185.5	385.05	304.38	154.33	355.63	288.3	151.57	418.29	447.87	71.982	501.36	500.35	73.754	388.24	556.62	71.436	452.92	328.98	709	146.49	409.64	633.52	148.79	333.82	619.86	166.26	396.41	725.87	126.04	377.13	530.58	160.81	399.47	536.06	302	307.53	395.72	146.99	358.8	301.41	176.01	300.72	318.7	153.34	366.76	377.5	164.94	264.07	109.3	197.56	289.82	118.06	294.05	191.88	79.428	244.35	201.77	54.107	278.2	199.67	53.018	215.47	408.64	39.614	178.73	435.72	45.967	300.04	498.67	53.845	248.21	340.13	1613.9	305.33	235.7	1309.3	317.92
288	1.1958	538.07	1290.5	303.4	425.75	1549.8	470.54	425.43	1560.1	140.71	482.17	1864.8	292.03	475.04	1049.8	457.46	487.1	1041.5	191.72	243.87	1085.7	359.15	243.27	1085.6	254.95	400.04	1000	540.92	381.38	989.73	113.47	385.93	1149.9	516.61	382.12	1124.8	113.26	229.59	1049.4	303.72	503	704.52	538.97	595.65	663.61	521.98	538.92	623.64	522.38	562.26	747.07	535.79	569.58	568.75	522.44	597.65	573.67	376.52	467.12	438.99	522.1	501.59	341.08	483.85	441.09	374.96	506.02	523.81	408.07	506.67	375.18	184.52	457.43	423.57	183.47	372.32	310.12	179.11	385.66	321.46	148.16	356.36	305.52	145.11	419.02	467.38	70.284	502.04	519.67	73.268	388.82	576.06	72.687	453.44	331.7	709.37	146.49	411.83	633.34	148.82	335.91	620.19	166.16	399.27	725.79	126.1	378.38	530.51	160.62	400.81	535.73	301.9	308.33	395.81	146.9	359.36	301.36	175.89	301.33	318.82	153.23	367.54	377.41	164.81	264.15	109.41	197.61	290.06	118.16	294.08	191.95	79.564	244.42	201.85	54.234	278.24	199.71	53.173	215.51	408.65	39.587	178.72	435.75	45.94	300.02	498.69	53.781	248.17	345.53	1613.6	305.44	241	1309	317.81
289	1.2	543.35	1290.1	303.57	430.96	1549.4	470.75	431.03	1559.9	140.87	487.52	1864.4	292.71	480.27	1049.4	457.49	492.26	1041	191.73	249.12	1085.4	359.37	248.35	1085.4	255.16	405.45	999.83	541.11	386.27	989.46	113.59	391.22	1149.6	516.72	387.23	1124.3	113.3	234.75	1049.2	303.93	509.57	704.67	538.69	602.37	664.24	521.39	545.84	624.01	521.9	568.62	747.51	535.43	576.92	569.29	521.92	604.55	574.4	376.1	477.27	437.07	522.09	514.04	339.95	483.92	452.75	372.42	506.12	534.64	407.5	506.58	391.55	180.18	457.94	439.83	180.3	372.79	326.47	172.76	386.33	338.73	142.06	357.15	322.93	138.73	419.79	486.93	68.771	502.78	539	72.932	389.48	595.46	74.109	454.02	334.44	709.72	146.48	414.05	633.15	148.85	338.03	620.5	166.04	402.16	725.7	126.17	379.65	530.45	160.41	402.16	535.4	301.8	309.13	395.89	146.81	359.92	301.31	175.77	301.94	318.94	153.12	368.32	377.31	164.67	264.23	109.53	197.65	290.3	118.25	294.1	192.01	79.701	244.49	201.94	54.364	278.28	199.75	53.328	215.56	408.67	39.557	178.71	435.78	45.913	300	498.72	53.717	248.14	350.95	1613.3	305.57	246.31	1308.7	317.74
290	1.2042	548.64	1289.6	303.74	436.2	1548.9	470.96	436.62	1559.6	141.04	492.88	1864	293.4	485.5	1049	457.56	497.43	1040.5	191.76	254.37	1085	359.6	253.44	1085.2	255.37	410.83	999.54	541.29	391.17	989.16	113.71	396.51	1149.1	516.85	392.36	1123.7	113.36	239.92	1048.9	304.14	516.04	704.72	538.36	608.98	664.74	520.78	552.64	624.25	521.39	574.88	747.83	535.05	584.15	569.73	521.37	611.37	575.03	375.64	487.39	435.12	522.05	526.47	338.83	483.99	464.42	369.88	506.2	545.41	406.91	506.49	408.03	175.92	458.49	456.19	177.18	373.31	343.01	166.48	387.05	356.18	136.05	357.99	340.52	132.46	420.62	506.52	67.452	503.59	558.34	72.755	390.19	614.82	75.708	454.67	337.22	710.06	146.46	416.29	632.95	148.88	340.17	620.8	165.91	405.07	725.59	126.23	380.95	530.39	160.2	403.52	535.06	301.68	309.94	395.99	146.71	360.49	301.26	175.63	302.55	319.06	153.01	369.11	377.22	164.52	264.31	109.65	197.69	290.54	118.35	294.12	192.08	79.841	244.55	202.02	54.496	278.31	199.79	53.484	215.6	408.68	39.526	178.69	435.81	45.886	299.98	498.74	53.651	248.11	356.37	1612.9	305.72	251.63	1308.4	317.69
